name rise30.3154peak39.0474fall46.5389.mot
datacolumns 19
datarows 24
range 22.20825300000000 22.24658300000000
endheader
time	ground_force1_vx	ground_force1_vy	ground_force1_vz	ground_force1_px	ground_force1_py	ground_force1_pz	ground_force2_vx	ground_force2_vy	ground_force2_vz	ground_force2_px	ground_force2_py	ground_force2_pz	ground_torque1_x	ground_torque1_y	ground_torque1_z	ground_torque2_x	ground_torque2_y	ground_torque2_z	
22.20825300000000	12.69900400000000	691.90390900000000	37.41390300000000	0.27477200000000	0.00000000000000	0.09231500000000	0.00000000000000	0.00000000000000	0.00000000000000	0.00000000000000	0.00000000000000	0.00000000000000	0.00000000000000	17.46569000000000	0.00000000000000	0.00000000000000	0.00000000000000	0.00000000000000	
22.20991900000000	12.28763400000000	692.36144999999999	37.50017600000000	0.27332600000000	0.00000000000000	0.09235100000000	0.00000000000000	0.00000000000000	0.00000000000000	0.00000000000000	0.00000000000000	0.00000000000000	0.00000000000000	17.53897300000000	0.00000000000000	0.00000000000000	0.00000000000000	0.00000000000000	
22.21158200000000	11.86305500000000	692.88756200000000	37.59333400000000	0.27187300000000	0.00000000000000	0.09238600000000	0.00000000000000	0.00000000000000	0.00000000000000	0.00000000000000	0.00000000000000	0.00000000000000	0.00000000000000	17.61932100000000	0.00000000000000	0.00000000000000	0.00000000000000	0.00000000000000	
22.21324900000000	11.42467500000000	693.48211200000003	37.69302100000000	0.27041400000000	0.00000000000000	0.09242000000000	0.00000000000000	0.00000000000000	0.00000000000000	0.00000000000000	0.00000000000000	0.00000000000000	0.00000000000000	17.70659100000000	0.00000000000000	0.00000000000000	0.00000000000000	0.00000000000000	
22.21492000000000	10.97194300000000	694.14492099999995	37.79888200000000	0.26895100000000	0.00000000000000	0.09245400000000	0.00000000000000	0.00000000000000	0.00000000000000	0.00000000000000	0.00000000000000	0.00000000000000	0.00000000000000	17.80063200000000	0.00000000000000	0.00000000000000	0.00000000000000	0.00000000000000	
22.21658900000000	10.50435300000000	694.87576000000001	37.91056200000000	0.26748400000000	0.00000000000000	0.09248700000000	0.00000000000000	0.00000000000000	0.00000000000000	0.00000000000000	0.00000000000000	0.00000000000000	0.00000000000000	17.90128500000000	0.00000000000000	0.00000000000000	0.00000000000000	0.00000000000000	
22.21825000000000	10.02144600000000	695.67435699999999	38.02770800000000	0.26601600000000	0.00000000000000	0.09252000000000	0.00000000000000	0.00000000000000	0.00000000000000	0.00000000000000	0.00000000000000	0.00000000000000	0.00000000000000	18.00838400000000	0.00000000000000	0.00000000000000	0.00000000000000	0.00000000000000	
22.21991900000000	9.52281200000000	696.54039599999999	38.14997100000000	0.26454800000000	0.00000000000000	0.09255000000000	0.00000000000000	0.00000000000000	0.00000000000000	0.00000000000000	0.00000000000000	0.00000000000000	0.00000000000000	18.12175600000000	0.00000000000000	0.00000000000000	0.00000000000000	0.00000000000000	
22.22158900000000	9.00809500000000	697.47351300000003	38.27700700000000	0.26308000000000	0.00000000000000	0.09258000000000	0.00000000000000	0.00000000000000	0.00000000000000	0.00000000000000	0.00000000000000	0.00000000000000	0.00000000000000	18.24122300000000	0.00000000000000	0.00000000000000	0.00000000000000	0.00000000000000	
22.22325900000000	8.47699100000000	698.47330099999999	38.40847500000000	0.26161500000000	0.00000000000000	0.09260800000000	0.00000000000000	0.00000000000000	0.00000000000000	0.00000000000000	0.00000000000000	0.00000000000000	0.00000000000000	18.36659900000000	0.00000000000000	0.00000000000000	0.00000000000000	0.00000000000000	
22.22491500000000	7.92925400000000	699.53930500000001	38.54404200000000	0.26015400000000	0.00000000000000	0.09263500000000	0.00000000000000	0.00000000000000	0.00000000000000	0.00000000000000	0.00000000000000	0.00000000000000	0.00000000000000	18.49769300000000	0.00000000000000	0.00000000000000	0.00000000000000	0.00000000000000	
22.22658700000000	7.36469600000000	700.67102299999999	38.68338200000000	0.25869700000000	0.00000000000000	0.09266000000000	0.00000000000000	0.00000000000000	0.00000000000000	0.00000000000000	0.00000000000000	0.00000000000000	0.00000000000000	18.63430700000000	0.00000000000000	0.00000000000000	0.00000000000000	0.00000000000000	
22.22825200000000	6.78318900000000	701.86790499999995	38.82617900000000	0.25724700000000	0.00000000000000	0.09268200000000	0.00000000000000	0.00000000000000	0.00000000000000	0.00000000000000	0.00000000000000	0.00000000000000	0.00000000000000	18.77623900000000	0.00000000000000	0.00000000000000	0.00000000000000	0.00000000000000	
22.22991400000000	6.18466500000000	703.12935300000004	38.97212300000000	0.25580500000000	0.00000000000000	0.09270300000000	0.00000000000000	0.00000000000000	0.00000000000000	0.00000000000000	0.00000000000000	0.00000000000000	0.00000000000000	18.92328000000000	0.00000000000000	0.00000000000000	0.00000000000000	0.00000000000000	
22.23158100000000	5.56911900000000	704.45471499999996	39.12091500000000	0.25437100000000	0.00000000000000	0.09272200000000	0.00000000000000	0.00000000000000	0.00000000000000	0.00000000000000	0.00000000000000	0.00000000000000	0.00000000000000	19.07521600000000	0.00000000000000	0.00000000000000	0.00000000000000	0.00000000000000	
22.23324900000000	4.93661000000000	705.84328500000004	39.27227000000000	0.25294700000000	0.00000000000000	0.09273800000000	0.00000000000000	0.00000000000000	0.00000000000000	0.00000000000000	0.00000000000000	0.00000000000000	0.00000000000000	19.23183000000000	0.00000000000000	0.00000000000000	0.00000000000000	0.00000000000000	
22.23491700000000	4.28725800000000	707.29430200000002	39.42590900000000	0.25153500000000	0.00000000000000	0.09275300000000	0.00000000000000	0.00000000000000	0.00000000000000	0.00000000000000	0.00000000000000	0.00000000000000	0.00000000000000	19.39289800000000	0.00000000000000	0.00000000000000	0.00000000000000	0.00000000000000	
22.23659100000000	3.62124900000000	708.80694800000003	39.58156900000000	0.25013500000000	0.00000000000000	0.09276400000000	0.00000000000000	0.00000000000000	0.00000000000000	0.00000000000000	0.00000000000000	0.00000000000000	0.00000000000000	19.55819100000000	0.00000000000000	0.00000000000000	0.00000000000000	0.00000000000000	
22.23825100000000	2.93883200000000	710.38033900000005	39.73899800000000	0.24874900000000	0.00000000000000	0.09277400000000	0.00000000000000	0.00000000000000	0.00000000000000	0.00000000000000	0.00000000000000	0.00000000000000	0.00000000000000	19.72747800000000	0.00000000000000	0.00000000000000	0.00000000000000	0.00000000000000	
22.23991700000000	2.24032100000000	712.01352999999995	39.89796000000000	0.24737800000000	0.00000000000000	0.09278000000000	0.00000000000000	0.00000000000000	0.00000000000000	0.00000000000000	0.00000000000000	0.00000000000000	0.00000000000000	19.90052200000000	0.00000000000000	0.00000000000000	0.00000000000000	0.00000000000000	
22.24158500000000	1.52609200000000	713.70550800000001	40.05822800000000	0.24602300000000	0.00000000000000	0.09278400000000	0.00000000000000	0.00000000000000	0.00000000000000	0.00000000000000	0.00000000000000	0.00000000000000	0.00000000000000	20.07708300000000	0.00000000000000	0.00000000000000	0.00000000000000	0.00000000000000	
22.24325000000000	0.79658400000000	715.45518800000002	40.21959400000000	0.24468400000000	0.00000000000000	0.09278600000000	0.00000000000000	0.00000000000000	0.00000000000000	0.00000000000000	0.00000000000000	0.00000000000000	0.00000000000000	20.25691600000000	0.00000000000000	0.00000000000000	0.00000000000000	0.00000000000000	
22.24491800000000	0.05229900000000	717.26141099999995	40.38186300000000	0.24336300000000	0.00000000000000	0.09278500000000	0.00000000000000	0.00000000000000	0.00000000000000	0.00000000000000	0.00000000000000	0.00000000000000	0.00000000000000	20.43977300000000	0.00000000000000	0.00000000000000	0.00000000000000	0.00000000000000	
22.24658300000000	-0.70620300000000	719.12294099999997	40.54485500000000	0.24206000000000	0.00000000000000	0.09278100000000	0.00000000000000	0.00000000000000	0.00000000000000	0.00000000000000	0.00000000000000	0.00000000000000	0.00000000000000	20.62540300000000	0.00000000000000	0.00000000000000	0.00000000000000	0.00000000000000	
